<?xml version="1.0" encoding="UTF-8"?>
<svg id="Capa_2" data-name="Capa 2" xmlns="http://www.w3.org/2000/svg" viewBox="0 0 76.59 26.76">
  <defs>
    <style>
      .cls-1 {
        font-family: Playfair-5ptSemiExpandedLight, Playfair;
        font-size: 8.45px;
        font-variation-settings: 'opsz' 5, 'wdth' 112, 'wght' 300;
        font-weight: 300;
      }

      .cls-1, .cls-2 {
        fill: #fff;
      }

      .cls-3 {
        letter-spacing: -.1em;
      }

      .cls-4 {
        letter-spacing: -.02em;
      }

      .cls-5 {
        letter-spacing: -.03em;
      }

      .cls-6 {
        letter-spacing: .02em;
      }
    </style>
  </defs>
  <g id="Capa_1-2" data-name="Capa 1">
    <g>
      <g>
        <path class="cls-2" d="M38.33,17.17c1.62.6,5.48.37,6.34,2.69.58,1.57.11,3.28-.85,4.44-1.4,1.69-3.22,2.48-5.17,2.45-1.15-.02-2.24-.26-3.17-1.08-.6-.53-1.03-1.25-1.08-2.07-.14-2.17,1.6-3.18,2.9-4.39-.66-.42-1.05-.91-1.16-1.55-.14-.79.1-1.51.64-1.91l1.46-1.1c-1.61-.5-2.77-1.9-2.85-3.83-.09-2.31.95-4.16,2.66-4.79,1.09-.4,2.07-.25,3.16.02,1.13.28,2.32-.09,3.49.1.08.3.05.68-.01.99l-2.09.11c.95.92,1.34,2.25,1.25,3.75-.16,2.57-2.36,4.08-4.56,3.85-.68-.07-1.5.2-1.7,1.11-.12.56.36,1.05.76,1.2ZM41.12,7.47c-.35-.91-.92-1.43-1.67-1.42-.65,0-1.36.54-1.6,1.47-.71,2.68-.16,7.37,2.11,7.08,2.26-.29,1.96-5.05,1.16-7.13ZM43.38,21.47c-.79-1.5-4.48-1.51-5.7-2.11-.91.78-1.61,1.99-1.55,3.44.13,3.17,4.01,3.59,6.32,2.18,1.07-.66,1.62-2.21.93-3.51Z"/>
        <path class="cls-2" d="M53.23,9.1c0-.65-.22-1.31-.64-1.7-1.04-.94-3.18-.18-3.99.92l-.06,6.68c0,.42.2.79.42,1.06.28.33.77.06,1.15.44h-5.18c.42-.38.86-.17,1.14-.47.23-.25.43-.61.43-1.05V2.23c.01-.81-.51-1.28-1.28-1.26-.06,0-.15-.06-.18-.09-.35-.36,2.96-.53,3.49-.88l.03,7.8c.89-.58,1.49-1.3,2.41-1.68,1.2-.49,2.61-.51,3.56.46.49.5.75,1.32.76,2.03l.02,6.51c0,1.56,1.89.98,1.37,1.43l-5.02-.08,1.07-.37c.36-.12.51-.64.51-1.11v-5.91Z"/>
        <path class="cls-2" d="M21.04,13.13c.2.13-1.29,3.5-3.74,3.65-.54.03-1.05-.14-1.33-.51s-.43-.93-.28-1.46l1.86-6.82c.08-.3,0-.65-.14-.83-.63-.8-2.31.56-2.91,1.21-1.37,1.48-2.41,3.24-3.02,5.18-.31.98-.39,1.96-.79,2.9-.64.04-1.27.04-2.02,0l2.18-8.71c.08-.31-.05-.67-.16-.84-.34-.52-1.5-.09-1.32-.52l4.09-.67c-.43,1.7-.98,3.29-1.53,4.95-.06.17-.06.36.13.38,1.14-2.08,3.4-5.18,5.88-5.26.79-.02,1.42.38,1.58,1.16.14.66.06,1.32-.13,1.99l-1.66,5.81c-.1.36.04.75.29.88,1.37.72,2.85-2.62,3.05-2.49Z"/>
        <path class="cls-2" d="M21.83,16.46c-.27.08-.38,0-.25-.21.05-1.13-.32-2.19.03-3.35.32,1.2.65,2.21,1.53,2.96,1,.85,2.43.99,3.5.2.5-.36.73-1.02.71-1.59-.1-2.25-4.1-2.54-5.27-4.24-.6-.88-.57-1.95-.04-2.92,1.14-2.1,4.4-1.5,6.24-1.13-.02.98.17,1.83-.07,2.81-.42-.73-.49-1.38-.94-1.96-.81-1.04-2.19-1.36-3.28-.6-.55.38-.76,1.02-.73,1.62.03.64.47,1.13,1.07,1.45l3.08,1.62c1.01.53,1.63,1.39,1.65,2.48.04,2.5-2.75,3.46-4.7,3.21l-2.53-.33Z"/>
        <path class="cls-2" d="M69.37,16.19c-.99.59-2.07.73-3.15.59l-2.71-.34c-.12-1.19-.31-2.29-.26-3.49.63,1.16.88,2.14,1.76,2.91.94.81,2.29,1.01,3.33.29.53-.37.71-.96.7-1.57-.06-2.44-4.76-2.59-5.59-4.79-.32-.85-.26-1.74.23-2.58.89-1.53,3.15-1.57,4.69-1.1.4.12.65-.02,1.13-.21.03,1.1.31,1.99.2,3.12-.47-.76-.63-1.49-1.19-2.09-.81-.87-2.01-1.19-3.05-.51-.52.34-.69.96-.67,1.58.02.56.42,1.1,1,1.42l3.29,1.78c.93.5,1.6,1.32,1.65,2.33s-.38,2.1-1.35,2.68Z"/>
        <path class="cls-2" d="M59.72,14.43c0,.59.28,1.08.74,1.27,1.01.42,1.84-.22,2.41-1.03-.13,1.47-1.59,2.16-2.87,2.17-1.31,0-2.35-.87-2.36-2.2l-.03-7.77c-.58-.15-1.03.13-1.54-.19,1.75-.72,2.85-1.94,3.44-3.78.39,1.12,0,2.13.2,3.27l2.74.11c.12,0,.09.44-.01.53l-2.75.06.02,7.56Z"/>
        <path class="cls-2" d="M35.29,16.52l-5.28-.08c.86-.26,1.42-.51,1.42-1.37v-7.19c0-.39-.22-.77-.42-.96-.32-.3-.75-.18-1.24-.36.68-.19,2.92-.85,3.7-.77l.03,9.32c0,1.38,1.51,1,1.78,1.41Z"/>
        <circle class="cls-2" cx="32.74" cy="2.08" r="1.28"/>
        <g>
          <path class="cls-2" d="M0,16.46c.23-.41.63-.26.94-.36.77-.24,1.27-.74,1.44-1.54l1.6-7.39,2.54-1.18-1.72,8.5c-.12,1.87,1.45,1.39,1.9,1.96H0Z"/>
          <path class="cls-2" d="M6.91,4.62c-.83.53-1.68.92-2.61,1.25l.52-2.89c.34-1.87-1.7-1.6-2.03-2.18h6.97c.09.62-1.95-.12-2.38,1.76l-.49,2.07Z"/>
        </g>
      </g>
      <text class="cls-1" transform="translate(45.66 23.1) scale(.96 1)"><tspan class="cls-3" x="0" y="0">W</tspan><tspan class="cls-4" x="7.69" y="0">A</tspan><tspan x="14.31" y="0">RE_</tspan></text>
      <text class="cls-1" transform="translate(8.01 23.01) scale(1.06 1)"><tspan x="0" y="0">S</tspan><tspan class="cls-5" x="5.8" y="0">O</tspan><tspan class="cls-6" x="12.25" y="0">F</tspan><tspan x="18.2" y="0" xml:space="preserve">T    </tspan></text>
    </g>
  </g>
</svg>